<?xml version="1.0" encoding="utf-8"?>
<!-- Generator: Adobe Illustrator 16.0.0, SVG Export Plug-In . SVG Version: 6.00 Build 0)  -->
<!DOCTYPE svg PUBLIC "-//W3C//DTD SVG 1.1//EN" "http://www.w3.org/Graphics/SVG/1.1/DTD/svg11.dtd">
<svg version="1.1" id="图层_1" xmlns="http://www.w3.org/2000/svg" xmlns:xlink="http://www.w3.org/1999/xlink" x="0px" y="0px"
	 width="80px" height="80px" viewBox="0 0 80 80" enable-background="new 0 0 80 80" xml:space="preserve">
<g>
	<path fill="#45C4E7" d="M40,0C17.908,0,0.004,17.912,0.004,40.004C0.004,62.088,17.908,80,40,80
		c22.088,0,39.996-17.912,39.996-39.996C79.996,17.912,62.088,0,40,0z M66.84,66.84c-3.487,3.49-7.543,6.228-12.066,8.135
		C50.092,76.957,45.125,77.96,40,77.96c-5.127,0-10.095-1.003-14.773-2.985c-4.521-1.907-8.583-4.645-12.068-8.135
		c-3.486-3.483-6.222-7.547-8.135-12.066c-1.978-4.678-2.983-9.645-2.983-14.77c0-5.133,1.006-10.1,2.983-14.777
		c1.913-4.52,4.648-8.583,8.135-12.066c3.485-3.491,7.547-6.228,12.068-8.135C29.905,3.043,34.873,2.04,40,2.04
		c5.125,0,10.092,1.003,14.773,2.985c4.523,1.907,8.579,4.644,12.066,8.135c3.486,3.483,6.224,7.546,8.139,12.066
		c1.975,4.677,2.981,9.645,2.981,14.777c0,5.125-1.007,10.092-2.981,14.77C73.063,59.293,70.326,63.356,66.84,66.84z"/>
	<path fill-rule="evenodd" clip-rule="evenodd" fill="#45C4E7" d="M52.043,56.309h-24.3c-2.231,0-4.048-1.816-4.048-4.055V27.937
		c0-2.239,1.842-4.246,4.081-4.246H44.08v2.04H27.776c-1.12,0-2.058,1.086-2.058,2.206v24.317c0,1.119,0.904,2.023,2.024,2.023h24.3
		c1.119,0,2.223-0.93,2.223-2.049V35.923h2.039v16.305C56.305,54.469,54.281,56.309,52.043,56.309L52.043,56.309z M38.922,47.51
		c-0.299,0.291-0.664,0.439-1.045,0.514l-8.874,4.389c-0.996,0.463-1.792-0.432-1.427-1.428l4.387-8.873
		c0.066-0.383,0.216-0.756,0.515-1.055l15.75-15.757c0.795-0.788,2.072-0.788,2.869,0l3.574,3.583c0.797,0.788,0.797,2.073,0,2.861
		L38.922,47.51L38.922,47.51z M29.517,49.758c-0.232,0.465,0.216,0.945,0.713,0.713l5.475-3.318l-2.87-2.877L29.517,49.758
		L29.517,49.758z M33.913,42.492l11.429-11.437l3.6,3.558L37.488,46.074C36.144,44.73,34.294,42.873,33.913,42.492L33.913,42.492z
		 M52.523,29.595l-2.148-2.147c-0.398-0.398-1.035-0.398-1.434,0l-2.09,2.098l3.523,3.633l2.148-2.147
		C52.922,30.632,52.922,29.994,52.523,29.595L52.523,29.595z"/>
</g>
</svg>
