<?xml version="1.0" encoding="utf-8"?>
<!-- Generator: Adobe Illustrator 16.0.0, SVG Export Plug-In . SVG Version: 6.00 Build 0)  -->
<!DOCTYPE svg PUBLIC "-//W3C//DTD SVG 1.1//EN" "http://www.w3.org/Graphics/SVG/1.1/DTD/svg11.dtd">
<svg version="1.1" id="图层_1" xmlns="http://www.w3.org/2000/svg" xmlns:xlink="http://www.w3.org/1999/xlink" x="0px" y="0px"
	 width="80px" height="80px" viewBox="0 0 80 80" enable-background="new 0 0 80 80" xml:space="preserve">
<g>
	<path fill="#45C4E7" d="M40,0C17.908,0,0.004,17.912,0.004,40.004C0.004,62.088,17.908,80,40,80
		c22.088,0,39.996-17.912,39.996-39.996C79.996,17.912,62.088,0,40,0z M66.84,66.84c-3.487,3.49-7.543,6.228-12.066,8.135
		C50.092,76.957,45.125,77.96,40,77.96c-5.127,0-10.095-1.003-14.773-2.985c-4.521-1.907-8.583-4.645-12.068-8.135
		c-3.486-3.483-6.222-7.547-8.135-12.066c-1.978-4.678-2.983-9.645-2.983-14.77c0-5.133,1.006-10.1,2.983-14.777
		c1.913-4.52,4.648-8.583,8.135-12.066c3.485-3.491,7.547-6.228,12.068-8.135C29.905,3.043,34.873,2.04,40,2.04
		c5.125,0,10.092,1.003,14.773,2.985c4.523,1.907,8.579,4.644,12.066,8.135c3.486,3.483,6.224,7.546,8.139,12.066
		c1.975,4.677,2.981,9.645,2.981,14.777c0,5.125-1.007,10.092-2.981,14.77C73.063,59.293,70.326,63.356,66.84,66.84z"/>
	<path fill="#45C4E7" d="M54.033,40c0,7.738-6.295,14.033-14.033,14.033S25.959,47.738,25.959,40
		c0-7.737,6.303-14.032,14.041-14.032c4.306,0,8.159,1.952,10.735,5.014c0.498-0.497,0.982-0.982,1.447-1.446
		c-2.948-3.429-7.309-5.608-12.183-5.608c-8.883,0-16.073,7.199-16.073,16.073S31.117,56.073,40,56.073
		c8.874,0,16.073-7.199,16.073-16.073c0-0.662-0.053-1.311-0.13-1.952l-1.912,1.912C54.031,39.974,54.033,39.986,54.033,40z"/>
	<path fill-rule="evenodd" clip-rule="evenodd" fill="#45C4E7" d="M40.54,47.017c0-0.008,0-0.008,0-0.008l-9.985-9.978
		c-0.24-0.24-0.373-0.564-0.373-0.904c0-0.713,0.572-1.285,1.285-1.285c0.341,0,0.664,0.133,0.904,0.373l8.352,8.352
		c0.199,0.199,0.465,0.299,0.722,0.299s0.522-0.1,0.722-0.299l16.023-16.023c0.24-0.24,0.563-0.373,0.912-0.373
		c0.705,0,1.277,0.572,1.277,1.277c0,0.34-0.133,0.672-0.373,0.912L42.349,47.009c-0.241,0.24-0.564,0.381-0.904,0.381
		C41.096,47.39,40.781,47.249,40.54,47.017"/>
</g>
</svg>
