<?xml version="1.0" encoding="utf-8"?>
<!-- Generator: Adobe Illustrator 16.0.0, SVG Export Plug-In . SVG Version: 6.00 Build 0)  -->
<!DOCTYPE svg PUBLIC "-//W3C//DTD SVG 1.1//EN" "http://www.w3.org/Graphics/SVG/1.1/DTD/svg11.dtd">
<svg version="1.1" id="图层_1" xmlns="http://www.w3.org/2000/svg" xmlns:xlink="http://www.w3.org/1999/xlink" x="0px" y="0px"
	 width="80px" height="80px" viewBox="0 0 80 80" enable-background="new 0 0 80 80" xml:space="preserve">
<g>
	<path fill="#45C4E7" d="M40,0C17.908,0,0.004,17.912,0.004,40.004C0.004,62.088,17.908,80,40,80
		c22.088,0,39.996-17.912,39.996-39.996C79.996,17.912,62.088,0,40,0z M66.84,66.84c-3.487,3.49-7.543,6.228-12.066,8.135
		C50.092,76.957,45.125,77.96,40,77.96c-5.127,0-10.095-1.003-14.773-2.985c-4.521-1.907-8.583-4.645-12.068-8.135
		c-3.486-3.483-6.222-7.547-8.135-12.066c-1.978-4.678-2.983-9.645-2.983-14.77c0-5.133,1.006-10.1,2.983-14.777
		c1.913-4.52,4.648-8.583,8.135-12.066c3.485-3.491,7.547-6.228,12.068-8.135C29.905,3.043,34.873,2.04,40,2.04
		c5.125,0,10.092,1.003,14.773,2.985c4.523,1.907,8.579,4.644,12.066,8.135c3.486,3.483,6.224,7.546,8.139,12.066
		c1.975,4.677,2.981,9.645,2.981,14.777c0,5.125-1.007,10.092-2.981,14.77C73.063,59.293,70.326,63.356,66.84,66.84z"/>
	<path fill-rule="evenodd" clip-rule="evenodd" fill="#45C4E7" d="M55.469,38.979L41.674,54.894c-1.547,1.584-1.837,1.584-3.379,0
		L24.527,38.979c-1.174-1.708-2.244-3.524-2.244-6.045c0-4.703,3.662-9.016,8.862-9.016c3.687,0,6.593,1.957,8.853,4.271
		c2.377-2.182,5.172-4.271,8.858-4.271c5.199,0,8.861,4.313,8.861,9.016C57.717,35.454,56.854,37.271,55.469,38.979L55.469,38.979z
		 M53.289,38.531c1.717-2.082,2.209-3.633,2.209-5.598c0-3.675-2.82-7.009-6.643-7.009c-3.23,0-6.938,3.234-8.858,5.549
		c-1.969-2.397-5.627-5.573-8.853-5.549c-3.927,0.033-6.651,3.334-6.651,7.009c0,1.965,0.631,3.408,2.219,5.531l13.285,15.359
		L53.289,38.531L53.289,38.531z"/>
</g>
</svg>
